# xmcd CD database file
#
# Track frame offsets:
#	150
#	15476
#	28726
#	43392
#	56297
#	71094
#	84362
#	97263
#	111834
#	131259
#	144815
#	161912
#
# Disc length: 2336 seconds
#
# Revision: 1
# Processed by: cddbd v1.5.2PL0 Copyright (c) Steve Scherf et al.
# Submitted via: CDex 1.51
#
DISCID=9f091e0c
DTITLE=William Bell - This Is Where I Live
DYEAR=2016
DGENRE=Rhythmic Soul
TTITLE0=The Three Of Me
TTITLE1=The House Always Wins
TTITLE2=Poison In The Well
TTITLE3=I Will Take Care Of You
TTITLE4=Born Under A Bad Sign
TTITLE5=All Your Stories
TTITLE6=Walking On A Tightrope
TTITLE7=This Is Where I Live
TTITLE8=More Rooms
TTITLE9=All The Things You Can't Remember
TTITLE10=Mississippi-Arkansas Bridge
TTITLE11=People Want To Go Home
EXTD=YEAR: 2016
EXTT0=
EXTT1=
EXTT2=
EXTT3=
EXTT4=
EXTT5=
EXTT6=
EXTT7=
EXTT8=
EXTT9=
EXTT10=
EXTT11=
PLAYORDER=
